<?xml version="1.0" encoding="iso-8859-1"?>
<!-- Generator: Adobe Illustrator 16.0.0, SVG Export Plug-In . SVG Version: 6.00 Build 0)  -->
<!DOCTYPE svg PUBLIC "-//W3C//DTD SVG 1.1//EN" "http://www.w3.org/Graphics/SVG/1.1/DTD/svg11.dtd">
<svg xmlns="http://www.w3.org/2000/svg" xmlns:xlink="http://www.w3.org/1999/xlink" version="1.1" id="Capa_1" x="0px" y="0px" width="512px" height="512px" viewBox="0 0 183.899 183.899" style="enable-background:new 0 0 183.899 183.899;" xml:space="preserve">
<g>
	<g>
		<path d="M171.178,78.313c-3.203-11.478-12.349-19.829-23.248-19.829c-0.128,0-0.244,0.039-0.365,0.045    c-1.754-21.811-17.33-38.946-36.499-38.946c-10.784,0-20.398,5.511-27.146,14.124c-4.253-4.104-9.639-6.673-15.582-6.673    c-13.341,0-24.156,12.428-24.509,27.879c-2.338-1.035-4.853-1.672-7.502-1.672c-11.755,0-21.275,11.104-21.275,24.798    C6.734,78.039,0,85.888,0,95.576c0,9.682,6.734,17.53,15.052,17.53c0.094,0,11.106,0,27.136,0    c0-23.321,16.161-43.242,38.404-48.43V50.647l31.545,19.717l2.581-1.611l3.301,2.04c14.833,9.167,23.687,24.984,23.687,42.313    c16.051,0,27.061,0,27.14,0c8.317,0,15.053-7.849,15.053-17.53C183.899,86.82,178.375,79.622,171.178,78.313z" fill="#FFFFFF"/>
		<path d="M58.669,113.113c0-16.605,12.239-30.373,28.166-32.848v7.246l20.48-12.802l-20.48-12.8v8.004    c-21.595,2.551-38.404,20.931-38.404,43.2c0,15.637,8.312,29.337,20.733,37.01l10.038-6.278    C67.16,138.833,58.669,126.947,58.669,113.113z" fill="#FFFFFF"/>
		<path d="M114.744,76.106l-10.041,6.271c12.038,5.015,20.533,16.9,20.533,30.735c0,16.604-12.239,30.372-28.163,32.845v-7.246    l-20.483,12.806l20.483,12.799v-8.007c21.593-2.545,38.398-20.935,38.398-43.196C135.471,97.475,127.154,83.775,114.744,76.106z" fill="#FFFFFF"/>
	</g>
</g>
<g>
</g>
<g>
</g>
<g>
</g>
<g>
</g>
<g>
</g>
<g>
</g>
<g>
</g>
<g>
</g>
<g>
</g>
<g>
</g>
<g>
</g>
<g>
</g>
<g>
</g>
<g>
</g>
<g>
</g>
</svg>
